<?xml version="1.0" encoding="UTF-8"?>
<svg width="800px" height="800px" version="1.1" viewBox="0 0 491.52 491.52" xml:space="preserve" xmlns="http://www.w3.org/2000/svg">
<path d="m77.57 143.62c-32.945 0-59.383-28.409-56.102-62.014 2.858-29.288 29.189-50.743 58.615-50.743h400.84c5.85 0 10.592-4.742 10.592-10.591 0-5.851-4.742-10.592-10.592-10.592h-400.11c-42.472 0-79.507 32.728-80.781 75.18-1.318 43.927 33.9 79.95 77.528 79.95h403.36c5.85 0 10.592-4.742 10.592-10.591v-6e-3c0-5.85-4.742-10.591-10.592-10.591h-403.36z" fill="#E56353"/>
<path d="m21.468 81.61c-3.282 33.606 23.157 62.015 56.102 62.015h401.35c-17.493-37.587-17.493-75.172 0-112.76h-398.83c-29.429 0-55.758 21.455-58.616 50.743z" fill="#EBF0F3"/>
<g fill="#E1E6E9">
	<path d="m56.077 56.587h413.72c0.377-1.489 0.869-2.979 1.3-4.468h-415.02v4.468z"/>
	<path d="m56.077 73.03h410.56c0.177-1.491 0.552-2.98 0.781-4.468h-411.34v4.468z"/>
	<path d="M56.077,89.48h409.85c-0.029-1.49-0.029-2.979,0-4.468H56.077V89.48z"/>
	<path d="m56.077 105.93h411.34c-0.229-1.49-0.604-2.981-0.781-4.469h-410.56v4.469z"/>
	<path d="m56.077 122.37h415.02c-0.432-1.49-0.923-2.98-1.3-4.468h-413.72v4.468z"/>
</g>
<path d="m413.95 302.14c32.946 0 59.383-28.408 56.103-62.014-2.858-29.288-29.189-50.744-58.616-50.744h-400.85c-5.849 0-10.591-4.742-10.591-10.591 0-5.85 4.742-10.592 10.591-10.592h400.11c42.472 0 79.507 32.728 80.781 75.18 1.317 43.928-33.9 79.951-77.529 79.951h-403.36c-5.849 0-10.591-4.743-10.591-10.593v-6e-3c0-5.85 4.742-10.591 10.591-10.591h403.36z" fill="#27A2DB"/>
<path d="m470.05 240.12c3.282 33.605-23.157 62.014-56.102 62.014h-401.35c17.493-37.587 17.493-75.172 0-112.76h398.83c29.429 0 55.758 21.455 58.616 50.744z" fill="#EBF0F3"/>
<g fill="#E1E6E9">
	<path d="m435.44 215.1h-413.72c-0.377-1.49-0.869-2.979-1.3-4.469h415.02v4.469z"/>
	<path d="m435.44 231.54h-410.56c-0.177-1.491-0.552-2.98-0.781-4.468h411.34v4.468z"/>
	<path d="m435.44 247.99h-409.85c0.028-1.491 0.028-2.98 0-4.469h409.85v4.469z"/>
	<path d="m435.44 264.44h-411.34c0.229-1.49 0.604-2.981 0.781-4.468h410.56v4.468z"/>
	<path d="m435.44 280.88h-415.02c0.432-1.491 0.923-2.981 1.3-4.469h413.72v4.469z"/>
</g>
<path d="m77.57 460.65c-32.945 0-59.383-28.408-56.102-62.014 2.858-29.288 29.189-50.744 58.615-50.744h400.84c5.85 0 10.592-4.742 10.592-10.591 0-5.85-4.742-10.591-10.592-10.591h-400.11c-42.472 0-79.507 32.728-80.781 75.18-1.318 43.928 33.9 79.951 77.528 79.951h403.36c5.85 0 10.592-4.742 10.592-10.592v-6e-3c0-5.849-4.742-10.591-10.592-10.591h-403.36z" fill="#44C4A1"/>
<path d="m21.468 398.63c-3.282 33.605 23.157 62.014 56.102 62.014h401.35c-17.493-37.586-17.493-75.171 0-112.76h-398.83c-29.429 0-55.758 21.455-58.616 50.744z" fill="#EBF0F3"/>
<g fill="#E1E6E9">
	<path d="m56.077 373.61h413.72c0.377-1.491 0.869-2.98 1.3-4.468h-415.02v4.468z"/>
	<path d="m56.077 390.05h410.56c0.177-1.491 0.552-2.981 0.781-4.469h-411.34v4.469z"/>
	<path d="m56.077 406.5h409.85c-0.029-1.49-0.029-2.98 0-4.468h-409.85v4.468z"/>
	<path d="m56.077 422.95h411.34c-0.229-1.49-0.604-2.981-0.781-4.468h-410.56v4.468z"/>
	<path d="m56.077 439.4h415.02c-0.432-1.491-0.923-2.981-1.3-4.468h-413.72v4.468z"/>
</g>
</svg>